HIERARCHY
ROOT Hips
{
  OFFSET 0 0 0
  CHANNELS 6 Xposition Yposition Zposition Zrotation Yrotation Xrotation
  JOINT LeftThigh
  {
    OFFSET 8.409438 0 -5.917753
    CHANNELS 3 Zrotation Yrotation Xrotation
    JOINT LeftLeg
    {
      OFFSET 0 0 -42.358652
      CHANNELS 3 Zrotation Yrotation Xrotation
      JOINT LeftFoot
      {
        OFFSET 0 0 -39.357303
        CHANNELS 3 Zrotation Yrotation Xrotation
      }
    }
  }
  JOINT RightThigh
  {
    OFFSET -8.409438 0 -5.917753
    CHANNELS 3 Zrotation Yrotation Xrotation
    JOINT RightLeg
    {
      OFFSET 0 0 -42.358652
      CHANNELS 3 Zrotation Yrotation Xrotation
      JOINT RightFoot
      {
        OFFSET 0 0 -39.357303
        CHANNELS 3 Zrotation Yrotation Xrotation
      }
    }
  }
  JOINT SpineLow
  {
    OFFSET 0 0 4.719101
    CHANNELS 3 Zrotation Yrotation Xrotation
    JOINT SpineMid
    {
      OFFSET 0 0 12.899191
      CHANNELS 3 Zrotation Yrotation Xrotation
      JOINT Chest
      {
        OFFSET 0 0 12.899191
        CHANNELS 3 Zrotation Yrotation Xrotation
        JOINT LeftShoulder
        {
          OFFSET 7.550562 1.41573 9.438202
          CHANNELS 3 Zrotation Yrotation Xrotation
          JOINT LeftArm
          {
            OFFSET 9.155056 0 4.247191
            CHANNELS 3 Zrotation Yrotation Xrotation
            JOINT LeftForearm
            {
              OFFSET 0 0 25.771955
              CHANNELS 3 Zrotation Yrotation Xrotation
              JOINT LeftHand
              {
                OFFSET 0 0 25.197169
                CHANNELS 3 Zrotation Yrotation Xrotation
              }
            }
          }
        }
        JOINT RightShoulder
        {
          OFFSET -7.550562 1.41573 9.438202
          CHANNELS 3 Zrotation Yrotation Xrotation
          JOINT RightArm
          {
            OFFSET -9.155056 0 4.247191
            CHANNELS 3 Zrotation Yrotation Xrotation
            JOINT RightForearm
            {
              OFFSET 0 0 -25.771955
              CHANNELS 3 Zrotation Yrotation Xrotation
              JOINT RightHand
              {
                OFFSET 0 0 -25.197169
                CHANNELS 3 Zrotation Yrotation Xrotation
              }
            }
          }
        }
        JOINT Neck
        {
          OFFSET 0 0 15.101124
          CHANNELS 3 Zrotation Yrotation Xrotation
          JOINT Head
          {
            OFFSET 0 0 11.325843
            CHANNELS 3 Zrotation Yrotation Xrotation
            End Site
            {
              OFFSET 0 0 14.157303
            }
          }
        }
      }
    }
  }
}
MOTION
Frames: 11
Frame Time: 0.0
0.0  101.685394  0.0  -0.003915  7.282857  -120.872995  16.170742  -20.24463  9.630535  -27.614495  21.5214  24.350385  -3.193386  2.944658  -0.291139  -1.135084  -12.414316  -100.891287  28.137362  -0.582155  111.440208  0.468079  -9.23641  5.59451  -3.540648  0.666258  4.101457  -9.536992  2.409263  11.09026  -9.536992  2.409263  11.090259  -4.304622  22.039941  14.971354  158.704829  68.818825  -149.712903  -46.704412  -40.599075  82.212099  80.265955  0.99676  -4.905748  30.658087  -1.375527  23.662889  52.252318  83.083378  7.366233  -45.106074  12.362367  -80.742693  91.372325  -16.756969  4.3013  4.35894  -0.615551  -0.607505  3.268566  -0.466025  -0.451261  
0.0  101.685394  0.0  0.057407  7.401658  -121.237448  15.855236  -19.971351  10.228669  -27.198295  21.236154  24.668249  -3.233999  3.05492  -0.329914  -1.337499  -12.950986  -103.024932  28.256455  -1.203234  110.164579  1.264706  -10.447365  5.722325  -3.478144  0.640347  3.973471  -9.376037  2.310512  10.747185  -9.376037  2.310512  10.747186  -4.231402  23.932334  17.424687  155.136581  64.818379  -151.350757  -45.414535  -39.007797  81.46063  82.523538  2.01726  -0.341492  28.326506  -2.086819  27.277444  53.379338  79.819339  6.114957  -43.046392  12.415089  -81.523784  90.981507  -16.931791  6.114377  3.924486  -0.455699  -0.423594  2.943035  -0.344512  -0.314782  
0.0  101.685394  0.0  0.070493  7.606745  -121.507517  17.035374  -21.126764  10.925622  -28.6967  21.625754  23.806255  -3.248343  3.128498  -0.403841  -1.649587  -13.012197  -104.925938  27.831647  -1.837274  109.200707  1.962573  -11.578296  5.541967  -3.304239  0.748907  3.915147  -8.887564  2.570017  10.58126  -8.887564  2.570017  10.58126  -5.049831  24.71878  19.427256  155.0311  62.148183  -151.091348  -42.492927  -35.507226  79.133766  85.518907  3.454129  3.093831  25.281096  -3.214525  29.976615  58.923578  76.253071  9.174737  -41.418805  13.609079  -81.329378  90.528151  -17.763239  8.174088  3.218114  -0.877503  -0.579067  2.412709  -0.661199  -0.429685  
0.0  101.685394  0.0  0.002322  7.827329  -121.752462  16.967139  -21.205066  11.069363  -28.526284  21.774749  24.134306  -2.997985  3.164897  -0.455353  -1.885975  -13.242184  -106.413862  27.500934  -2.611861  108.336179  2.142376  -12.619278  5.319044  -3.081806  0.836548  3.935049  -8.266634  2.775647  10.635087  -8.266634  2.775647  10.635086  -6.917723  25.644763  20.626962  155.011652  59.171303  -151.559588  -39.902602  -31.486584  77.4538  88.714424  5.162029  5.621238  22.071899  -4.482632  31.900114  65.23754  72.185416  13.470237  -39.726315  15.515381  -81.02331  88.841071  -18.213422  8.740242  2.384651  -1.285917  -0.973062  1.786371  -0.968255  -0.724761  
0.0  101.685394  0.0  -0.118878  7.957198  -121.928494  17.351331  -21.630501  11.052096  -28.697388  22.115224  24.276996  -2.967715  3.082519  -0.574005  -1.66109  -13.965037  -107.486846  27.309773  -3.072375  107.578538  2.12582  -13.148275  5.15026  -3.043285  0.931703  4.079375  -8.139585  3.045884  11.020125  -8.139585  3.045884  11.020125  -7.920947  26.398414  20.960169  154.659644  56.669296  -152.057467  -38.712192  -26.324916  76.527522  90.968683  7.435006  7.482484  20.125268  -5.471021  33.159474  69.636612  68.505413  15.904923  -37.949208  16.806475  -80.626555  86.112344  -16.275652  6.996297  2.219632  -1.576369  -1.765114  1.660082  -1.188717  -1.318046  
0.0  101.685394  0.0  -0.137828  7.657132  -122.000096  18.217631  -22.20972  10.802174  -28.748827  22.534234  24.440785  -2.793936  3.023978  -0.558615  -3.239376  -6.001072  -111.524428  18.311979  -4.432638  109.142402  1.926478  -13.872281  6.530931  -3.333497  1.066665  4.383764  -8.891832  3.500903  11.819438  -8.891832  3.500903  11.819439  -7.022701  27.2883  19.864616  152.820241  55.352431  -153.205453  -42.397442  -16.445686  79.522579  82.869052  12.046896  2.19791  20.551048  -5.674977  33.381566  69.871288  66.36006  11.914115  -41.737249  7.290436  -84.090164  91.39079  -15.946079  7.144424  3.384089  -1.675825  -3.06739  2.529549  -1.273937  -2.29118  
0.0  101.685394  0.0  -0.38953  6.948993  -121.392328  19.810471  -23.011677  9.682159  -29.048947  23.003817  24.43909  -2.437702  2.926275  -0.396378  -2.530373  -10.551816  -111.352537  22.419749  -7.578095  109.543273  1.240541  -14.758877  3.569124  -3.869872  1.117983  4.54237  -10.335406  3.759101  12.212686  -10.335406  3.759101  12.212686  -4.326747  28.746588  18.873793  153.496542  55.158888  -151.842427  -46.461797  -7.863771  79.46513  76.426516  15.848421  -4.542939  22.851594  -5.851692  33.886274  64.394826  66.036394  4.786436  -41.374913  8.641045  -82.422653  84.446898  -10.159373  14.919761  5.425963  -1.360025  -4.059311  4.06046  -1.056212  -3.032547  
0.0  101.685394  0.0  -0.850477  6.338677  -120.68236  21.022921  -23.862338  8.365373  -29.044949  23.459947  24.615959  -2.557313  2.879275  -0.348798  -1.736157  -13.792526  -110.293961  24.222599  -9.245908  108.04276  0.123474  -14.714959  3.207151  -4.208879  1.114967  4.573343  -11.25801  3.817691  12.275714  -11.258011  3.817691  12.275713  -3.038752  29.747049  18.384309  158.804433  54.232948  -147.545568  -44.564924  -10.206251  79.428498  86.327863  15.223596  -2.409952  24.203351  -6.182163  34.848337  49.38513  66.137211  -9.207862  -37.228795  8.091551  -81.529994  90.088583  -10.755914  19.035872  6.568893  -1.100093  -4.57013  4.918619  -0.874371  -3.416135  
0.0  101.685394  0.0  -1.234342  6.095368  -120.498829  21.417657  -24.432915  7.614515  -28.505276  23.726186  25.267282  -2.550031  2.957315  -0.283375  -3.009361  -13.686979  -109.855172  21.425544  -11.658969  106.598781  -1.613939  -13.201669  5.179083  -4.392124  1.059899  4.617651  -11.764175  3.709474  12.393492  -11.764175  3.709474  12.393491  -2.838804  30.651649  18.000714  162.505477  52.619552  -145.705735  -40.492296  -16.484013  79.757046  82.222964  12.350036  -4.426235  24.148412  -6.345158  35.606577  38.282835  64.519021  -19.10264  -34.529442  11.529269  -80.886732  93.634458  -12.507506  17.307075  6.828701  -0.688838  -4.849473  5.116381  -0.570946  -3.629902  
0.0  101.685394  0.0  -1.263526  6.211246  -120.523929  21.393461  -24.612925  7.22769  -28.253396  24.114847  25.837519  -2.614927  2.95669  -0.336942  -2.41771  -15.288837  -108.999325  21.909459  -11.971136  106.633215  -2.36375  -11.532103  6.376416  -4.553273  0.976481  4.557489  -12.22165  3.501977  12.233399  -12.22165  3.501978  12.233398  -2.379226  31.529067  18.690721  165.147911  52.380265  -144.92786  -39.078848  -19.569059  80.783741  80.405287  11.436007  -3.839723  23.720472  -5.879511  36.180536  34.990733  62.447551  -21.72527  -33.970463  15.940822  -82.378165  91.468635  -13.168791  17.634304  6.703905  -0.050571  -4.672259  5.02789  -0.089204  -3.504139  
0.0  101.685394  0.0  -0.999676  6.177066  -120.441183  21.557346  -24.518347  6.805525  -27.977322  24.522541  26.453473  -2.668875  2.907414  -0.418168  -0.326874  -14.825823  -106.983455  23.007675  -8.649077  107.216175  -0.850496  -11.243774  6.946467  -4.721336  0.918894  4.259544  -12.707232  3.320012  11.4216  -12.707231  3.320012  11.4216  -0.873121  32.448955  20.470446  166.415486  51.936988  -145.246279  -39.150812  -20.602867  82.110445  81.976258  8.790223  -2.904593  23.701497  -5.385096  37.77477  36.096154  61.865305  -19.913095  -33.102637  18.952051  -82.662882  87.831311  -12.592003  20.131706  6.918053  0.662809  -3.625814  5.19263  0.456148  -2.727247  
